<svg viewBox="0 0 428.77 155.69"><defs><style>.cls-1{fill:#ed1c24;}.cls-2,.cls-3,.cls-4{fill:#fff;}.cls-3,.cls-4{stroke:#fff;stroke-miterlimit:10;}.cls-3{fill-rule:evenodd;}</style></defs><title>Asset 1</title><g id="Layer_2" data-name="Layer 2"><g id="Layer_1-2" data-name="Layer 1"><path class="cls-1" d="M427.86,124.41l.27-1.63C428,123.63,427.62,123.45,427.86,124.41Z"/><polygon class="cls-1" points="427.28 123.37 427.28 122.41 426.95 123.28 427.28 123.37"/><path class="cls-1" d="M362.78,120l-.27-.16C362.54,120.31,362.66,120.22,362.78,120Z"/><path class="cls-1" d="M364.67,102.36l.15.41.14-.19A.42.42,0,0,0,364.67,102.36Z"/><path class="cls-1" d="M361.55,125.85a2.63,2.63,0,0,0,.59-.66C361.94,125.1,361.68,125.34,361.55,125.85Z"/><path class="cls-1" d="M367.32,97.77,368,97A1.61,1.61,0,0,0,367.32,97.77Z"/><path class="cls-1" d="M395.11,153.78l.2.08Z"/><path class="cls-1" d="M428.63,109.07l-.18-.69c-.12-.46-.22-.92-.31-1.37s-.26-.91-.38-1.36-.22-.92-.41-1.37a19.3,19.3,0,0,0-1.12-2.71A15.24,15.24,0,0,0,424.59,99s0-.09,0-.24l0-.5-.08-.75-.51.28c-.72-.76-.64-1-.49-1.12s.4-.27-.08-.76c.36.39.22.38.18.55-1.2-2.27-1.28-.68-2.15-1.73.1.84,1.64,2,.65,2.14a6.89,6.89,0,0,0-1.1-1.61,18.6,18.6,0,0,0-1.38-1.47,8.92,8.92,0,0,1-1.12-1.27,1.22,1.22,0,0,1-.31-1.07c-1-.52-2.17-1-3.3-1.51l-1.75-.69c-.58-.24-1.19-.39-1.79-.6a14.29,14.29,0,0,0-1.8-.49,15.15,15.15,0,0,0-1.77-.36L406,87.54c-.53-.05-1-.07-1.39-.08-.47.24.29.19.11.38-1.37-.8-4.58.56-4.6-.16a2.28,2.28,0,0,0-1.12.91,11.23,11.23,0,0,0-3-.61l.81.2-.09.1L395.57,88l0,0c-2.77-.2-6,0-8.49-.8,1.26.41.06.76.17,1a3.23,3.23,0,0,0-1.22-.5,7.1,7.1,0,0,0-2-.18,14.46,14.46,0,0,0-2.22.27c-.74.19-1.48.38-2.16.62.08.22-.06.48.3.55l-1.7.12.31.19c-.68.28-1.37.58-2.07.83s-1.41.51-2.08.79l-1,.42c-.3.16-.59.33-.85.51a4.14,4.14,0,0,0-1.27,1.14c1-.68,1.2-.46,1.52-.24-.87.58-1.59,1.3-2.41,2l-1.19,1.13c-.43.37-.84.8-1.27,1.24.13-.06.25-.08.32,0-.29.58-1,1-1.46,1.52l.44.38c-.91.91-1.39,2.47-2.36,3.68.21.4-.29,1.16-.76,2.13-.22.48-.47,1-.67,1.52a4.35,4.35,0,0,0-.29,1.48c-.24.63.87-1.32.55.5-.62,0-.76.65-.79,1.25s-.11,1.17-.78,1.23l.06.27c0,.15.08.39.15.56l.24.71-.67.31c1.25,1.21-.56,1.84-.16,3.64.14-.09.19-.29.29-.19-.14.58-.22,1.92-.57.88,0,1-.3,4.22.4,2.75-.38.11-.06-1.23.08-1.81.57.08.35,1.51,1,1.87a2.72,2.72,0,0,0-.26.37l.35.21c-.63,1.8-.18,3.63-1,4.94.18.08.31.39.27,1l-.72,0,0,1.92s.26-.23.52-.46l.52-.45a4.87,4.87,0,0,1,0,.76c0,.26,0,.55-.05.82a14,14,0,0,1-.28,1.57,10.79,10.79,0,0,0-.25,3.1c.66.13.76,1.13,1,2.3a12.69,12.69,0,0,0,.51,1.74,2.79,2.79,0,0,0,1,1.3l-.2-.79a6.12,6.12,0,0,1-.16-.8,10.54,10.54,0,0,0,.86,1.91,8,8,0,0,0,.86,1.28c.29.38.57.75.86,1.21A15.11,15.11,0,0,1,368,143.3a18.57,18.57,0,0,1-1.93-2.13c-.26-.33-.57-.68-1-1.14l-1.52-1.91c1.07,1.76,1.77,3.36,2.67,4.85a13.22,13.22,0,0,0,1.5,2.12,8.44,8.44,0,0,0,2,1.77c0-.38-.54-1.13.32-.74.06.45.68,1.06,1.24,1.5s1,.78.56.9c1.07.51,1.61,0,2.25.31l.43.42a12,12,0,0,0,1,.9l1.54,1.23-.05-.18c3.31.52,6.08,1.37,9.11,1.88l1.1.19.95.15c.63.1,1.27.19,1.92.26a16.66,16.66,0,0,0,4,0l-.11-.38,1.16.48c-.63-.31.67-.42.74-.73l3.47.83a.8.8,0,0,0-1-.95c1.32-.39,2.68.41,3.83.45l-.39-.33,1.16.28v-.48a25.29,25.29,0,0,0,3,0,4.3,4.3,0,0,1,2.47.32l-.34-.74.38.07.85.08,1.25.11-1.46-.3c.66-.16,1.42-.21,2.17-.38s1.54-.27,2.24-.45l1.84-.48a7.48,7.48,0,0,0,1-.35l-.34-.15c.34-.32.73-.3,1.2-.43l-.51-.22a10.36,10.36,0,0,0,2.21-1.33,12.94,12.94,0,0,0,1.54-1.38l.74-.7c.24-.26.49-.52.77-.79s.6-.55.93-.86.68-.67,1.1-1c.73-1-.55.41-.74.25A2.69,2.69,0,0,1,424,143a3.94,3.94,0,0,1,.91-.73c-.74-.11-1.68,1.42-1.26,0,.83-.56-.87.13.23-1.11h.54l.55,0c.39-.88-.45-.53.39-1.74.6-.63.54-.08.52.37s0,.78.77-.41a6.26,6.26,0,0,0,.14-2.51,6.15,6.15,0,0,1,.46-3.21c.06-1.13-.34-.91-.63-.79s-.26.1-.28-.05a6.42,6.42,0,0,1,.21-1.2l-.13.27a5.31,5.31,0,0,1-.3.59h0a20.93,20.93,0,0,0,.35-2.16c0-.05,0-.11.05-.16l0,.11a21.06,21.06,0,0,0,.12-2.19v-.43a10.71,10.71,0,0,0,0-3.83v-.66a1.11,1.11,0,0,1,0-.16l0,0v-2.66l.31.11c-.34-.57-.4-2.29,0-2.58.67.17.25,1.9.31,2.66.21-3.36,1.41-3.4.91-6.24l-.24.48c-.58-1.77.41-3.54.26-5.28.18.46.46.54.58.31ZM362.51,126.3l.05-.82a.84.84,0,0,1,0-.52l0,.52C362.66,125.9,363,126.21,362.51,126.3Zm.95,4.4a3.08,3.08,0,0,0,0-1c-.27.24-.64,1.2-.78.54.3-.5.31-2,.79-2.06C363,129.55,364.4,130.36,363.46,130.71Zm2.78-14v1.39a2.57,2.57,0,0,1-.64-.19A2.82,2.82,0,0,0,366.24,116.67Zm59.42-15-.29.82-.48-1.09Zm-.5,1.47a16.55,16.55,0,0,1,.41,1.71,20.71,20.71,0,0,0-2-4.29,2.25,2.25,0,0,0-.81-1.74c0,.16,0,.31,0,.47-.24-.33-.48-.66-.74-1a2.39,2.39,0,0,0-.23-.81A13.3,13.3,0,0,1,425.15,103.13Zm-9.32-10.27.39-.1.56.39Zm-5.63-2.4a5.47,5.47,0,0,1,1.36.62,5.91,5.91,0,0,1,.82.57,20.5,20.5,0,0,0-3-.76l-.39-.25A1.73,1.73,0,0,1,410.2,90.46Zm-6.58-.5a2.69,2.69,0,0,0,1.58-.12c-.2-.28-1-.23-1.26-.42.57-.33,1.48,0,2.19.19s1.19.26.86-.73c.26.13.82.33,1.22.58s.64.51.33.64A9.94,9.94,0,0,0,406,90a9.82,9.82,0,0,0-2.26.4.44.44,0,0,1-.39.2,1.06,1.06,0,0,1,.39-.2.4.4,0,0,0-.08-.41.72.72,0,0,1-.43-.24A.55.55,0,0,1,403.62,90Zm-3.19.4.44.23h-2.13A4.5,4.5,0,0,1,400.43,90.35ZM389.79,88l.53.24c-1.37.29-.67,0-.53-.24l-.63-.28C389.78,87.79,389.85,87.92,389.79,88Zm-2.91.84c.2-.45,2-.35,2.5-.12C388.61,88.82,386.62,88.92,386.88,88.89Zm-1.32,1.17c.91.17.5.39.59.55h-.09C385.71,90.48,385.46,90.3,385.55,90.06Zm-4.35.79a.55.55,0,0,0-.08-.16A.18.18,0,0,1,381.2,90.85Zm-3.8,1.36c1.15-.14.73-.52,1.23-.86l-.05.36,0,.37c-1.57.34-1.85,0-3.32.06C376.47,90.94,377.4,91.76,377.4,92.21Zm-2.79-.28.84-.71a1.41,1.41,0,0,1,.51-.43c-.13.09-.51.43-.51.43-.54.75-.19,1.53-1.63,1.44A8.06,8.06,0,0,1,374.61,91.93Zm-9.29,32.56a1.34,1.34,0,0,1,0-.55c0-.6-.07-.77.38-.71.19-.29-.05-.76.13-1.06.4,1.16-.32,1.09-.51,1.76A5.22,5.22,0,0,1,365.31,124.49Zm.41,3.23c.33-.12.47-.49.52-.94v1C366.12,127.89,366,127.9,365.72,127.73Zm2.61,12.53c-.18-.53-.41-.86-.81-.42l.2-.49.2.23s-.41-1.19-.37-1.2a3.08,3.08,0,0,1,1,1.82,9.06,9.06,0,0,0,.37,1.6A8.72,8.72,0,0,1,368.33,140.26Zm3,1.46.21.24,0,.1C371.45,141.95,371.4,141.83,371.34,141.72Zm4.88,7.46a2,2,0,0,0,1.1.5,1.14,1.14,0,0,1,.85.73C376.91,150.71,376.61,149.67,376.22,149.18Zm2.88.86c1.58.31-.46-1,.59-.85l-.78-.23c1.41-.06.69.89,1.64,1a4.86,4.86,0,0,1-.63-.09c-.31.14-.11.3.18.48s.67.31.68.5C380,150.91,378.46,149.89,379.1,150Zm14.82-.65c.25-.1,0-.37-.51-.5H395C395,149.14,394.44,149,393.92,149.39Zm17,1.6a2,2,0,0,1,1.64-.53A2.7,2.7,0,0,1,410.89,151Zm1.57-.07c1.4-.94,1.43.06,2.42-.2C413.78,151.58,413.66,150.72,412.46,150.92Zm12-12.87s-.41.43-.41.43a.35.35,0,0,1-.24,0q.25-.43.48-.87C424.41,137.63,424.48,137.73,424.46,138.05Zm2.16-19.41v-.89a.49.49,0,0,0,.19-.3A11.78,11.78,0,0,0,426.62,118.64Zm.32-2.24-.06-1.73c-.13.78-.18,1.53-.26,2.19v-3.67a.77.77,0,0,1,.58-.34C426.92,113.52,427.7,115.7,426.94,116.4Zm.74-8.88a8,8,0,0,0-.19,1.37l-.31-.45a3.5,3.5,0,0,1-.38,1.49,3.32,3.32,0,0,1-.21.36c0-.28,0-.55-.06-.83l.08,0a21.3,21.3,0,0,1-.14-2.43,5,5,0,0,1,.19-2.1c.72.85,0,2.4.25,2.61.19-.54-.11-1.5.36-1.63A2,2,0,0,1,427.68,107.52Z"/><path class="cls-1" d="M395.66,87.91l0,.05.39,0Z"/><path class="cls-2" d="M386.08,108.82v-.12h-.54l-.27.08h-.12c-.08,0-.2,0-.2-.08a8.86,8.86,0,0,1-.23-2.07c0-.62.23-1.36.23-1.91a1.45,1.45,0,0,0-.62.08,4.25,4.25,0,0,0-.9.35c-.23.19-.58.19-.86.47l-.51.23a5.57,5.57,0,0,0-.7.16,16.32,16.32,0,0,1-1.68.82,1.52,1.52,0,0,0-.43.23c-.58.2-1.05.2-1.4.7l-.16-.08-.31.08h-.51c-.08,0-.43.12-.51.12l-.31,0-.16,0a1.28,1.28,0,0,1-.74-.12,2.48,2.48,0,0,1-.82-1.71v-.35l.08-.15c.2-.39.12-.66.58-.74l.7-.08.12.08.16.27a4.46,4.46,0,0,0,.55.08h.08c.27-.08,1.09-.19,1.09-.19s.74-.31.82-.31a15.7,15.7,0,0,1,1.71-.7,10,10,0,0,1,1.79-.7c1.21-.31,2.3-.78,3.43-1.17l.23-.08.16-.19.35-.2.12-.23c.12-.16.27,0,.39-.08s.51-.19.58-.19h.35a3.75,3.75,0,0,1,1.36.19l.47.19c.35.12.62.51.9.66l.16.08c.16.12.66.58.74.66l.12.23a3,3,0,0,1,.12.54v.12c0,.08-.23.31-.23.31l-.58.63h-.58a2.37,2.37,0,0,1-.27.23l-.08.19a3.22,3.22,0,0,0-.55.47c-.27.31-.47.86-.82,1.4-.23.35-.62.51-.9.86l-.08.16-.12.27c0,.08-.39.31-.39.39l0,0Zm-1.17,11.65a1.38,1.38,0,0,1-.47.27,1.63,1.63,0,0,0-.7.54.36.36,0,0,0-.2,0c-.08,0-.39.27-.47.31s-.16.12-.16.12a3.46,3.46,0,0,1-.9.82l-.12.16c0,.08-.12,0-.27.23s-.16.12-.2.23l0,.08s-.27.2-.27.23l-.16.27v0h0l-.08.16-.12.12v.08l0,0a.53.53,0,0,0-.31.08v.27l-.08,0c-.19.15-.23.39-.35.55l-.08.12-.16.08-.08.08,0,.08s-.12,0-.12.12v.15l-.08,0,0,.12-.19.12,0,0a.73.73,0,0,1-.31.16l-.2,0c-.12,0-.16-.16-.31-.16v0c-.31,0-.43-.15-.43-.47v-.16l0-.19a5.41,5.41,0,0,1,.12-.74l.19-.16s.08-.16.08-.2a1.54,1.54,0,0,1,.16-.35v-.08s.16-.19.23-.23l0-.12c.23-.23.31-.39.51-.59a.91.91,0,0,1,.47-.47c.12-.12.2,0,.23-.23l.08,0a1.61,1.61,0,0,1,.35-.47l1.44-1.32a.56.56,0,0,0,.2-.16c.23-.16.43-.35.7-.51s1.4-.9,1.64-1.09a7.6,7.6,0,0,1,.82-.55l.2-.31A4.48,4.48,0,0,0,386,117a3.47,3.47,0,0,0,.39-.39c.2-.12.23-.31.31-.39.19-.27.39-.43.39-.78a.42.42,0,0,0,0-.23s-.35-.12-.39-.12l-1.44-.12-.16,0a5.1,5.1,0,0,0-.74,0v-.08h-.58a.86.86,0,0,1-.39-.08,2.13,2.13,0,0,1-.55-.35s-.08,0-.12,0c0-.23-.16-.23-.19-.31a2.75,2.75,0,0,1-.31-.58.41.41,0,0,1,0-.23c0-.08,0-.23,0-.27a2.27,2.27,0,0,0,.23-.16.46.46,0,0,1,.35-.19c.55,0,1.05.47,1.56.74a2.31,2.31,0,0,0,.78.27c.62.16,1.29.27,1.95.39.47,0,1,.23,1.44.23v0s.2.08.51.23c.16,0,.31,0,.43.08a1.15,1.15,0,0,1,.55.62c0,.12.27.39.27.62s-.12.43-.27.47l-.19.2s0,.23,0,.23a.46.46,0,0,1-.27.31.88.88,0,0,1-.27.47l-.27.31-.31.19s-.16.16-.16.2.16,0,.19,0a6.21,6.21,0,0,1,.58.23c.08,0,.2.19.35.23l.19,0c.23,0,0,.19.35.27l.2.16,0,.12.16,0c.08,0,.35.23.35.23a4.91,4.91,0,0,1,.78,1l0,.12v.19c0,.08,0,.12.08.12a1.09,1.09,0,0,0,.08.55l0,.12,0,.12V122s0,.39,0,.43v0s0,.27,0,.27l-.08,0-.08,0h-.51a1.41,1.41,0,0,1-.31-.19l0,0h-.08a1.83,1.83,0,0,0-.35-.12l-.08,0a5.56,5.56,0,0,1-1-.9s-.08-.2-.12-.23v-.16a4.45,4.45,0,0,1-.31-.51v-.27l-.31-.39-.16-.23-.08-.16a2.9,2.9,0,0,1-.2-.47l-.16-.08s-.08-.23-.12-.23a2.42,2.42,0,0,0-.7.5l-.43.12a8.56,8.56,0,0,0-1,.43l-.23.2-.43.27Zm-2.18-26.3s0,.08,0,.12a3.5,3.5,0,0,1,.39-.39c.08-.12.58-.62.66-.7a.55.55,0,0,0,.12-.2,5.75,5.75,0,0,1,.58-.43l.31-.35.23-.08V92c.08-.16.27-.16.43-.19l.08-.08c.08-.12.43-.12.47-.19a.4.4,0,0,0,.19-.27h0a2.48,2.48,0,0,0,.39-.23H387s.31-.08.39-.08h0c.08,0,.08,0,.19.08v.08a.48.48,0,0,1-.08.19l0,.12-.23.12v.19a.27.27,0,0,1-.16.08c-.12,0-.23,0-.31.16s-.16.2-.35.27h0l-.23.16-.23,0a.85.85,0,0,1-.19.12l-.08,0-.08.15-.19.08a.86.86,0,0,0-.23.27s-.31.23-.35.27l-.43.43v.08l-.58.58s-.2.16-.2.2v0l0,0c.58.12,1.17.16,1.79.27a3.34,3.34,0,0,1,.66.12h.08a5.56,5.56,0,0,0,.62.39s.2.19.23.19l.19.08,0,0c.16.19.35.31.58.55,0,0,0,.08.16.12l.08.08a.57.57,0,0,1,.16.08l0,.12s.35.19.39.27l.12.12a3.23,3.23,0,0,1,.35.39l.12,0,.19.19h0l.62.62c.16.2.19.35.43.51V99a2.48,2.48,0,0,0-.16.31c-.08.19-.82.35-1.09.39l-.2,0h-.23a5.64,5.64,0,0,1-.78-.16h-.19a.59.59,0,0,0-.27-.12v-.08l-.12,0c-.2-.08-.31-.35-.58-.35,0-.08-.12-.12-.12-.16a1.61,1.61,0,0,0-.54-.35l-.16-.08a2.47,2.47,0,0,0-.66-.62c-.23,0-.43-.23-.58-.39v0l.08,0-.12-.08c-.39-.12-.66-.35-1-.47h0c-.23,0-.35.12-.55.16H383l0,.12h0s-.23.08-.31.08l-.43.39-.08,0s0,.08,0,.08,0-.08,0-.08l-.12,0,0,0c-.12.16-.23.16-.31.31s-.16.23-.16.27-.31.16-.39.2l-.23.43-.12.08,0,.19,0,.08-.19.19-.08.27a3.17,3.17,0,0,1-.19.55l-.08.12v.35a.54.54,0,0,1-.08.16l-.27.27h0s0,.12,0,.12-.12,0-.12,0v0c-.12.19-.31.16-.51.16a1.23,1.23,0,0,1-.54-.08l-.12-.08-.08,0V101a3.56,3.56,0,0,0,0-.66c.16,0,.12-.23.16-.35l0-.08a.81.81,0,0,0,.16-.43l.08-.16c.08-.15,0-.23.08-.35.2-.27.43-.47.51-.62v-.23a.39.39,0,0,1,.31-.23l-.12-.12h.16l0-.16s.12-.12.12-.12l.12-.16.12-.2.08-.12V96.9l.08,0a1,1,0,0,1,.08-.19v-.19h0A2.83,2.83,0,0,0,381,96l0,0c0-.12,0-.12.23-.16l0-.08v-.08a.3.3,0,0,1,.16-.16l.16,0,.08-.12,0-.2.19,0c.2-.16.39-.35.55-.47,0,0,.08-.2.23-.35C382.69,94.29,382.69,94.17,382.73,94.17Zm2.42,3.35s0,.08.08.12v0A.08.08,0,0,0,385.14,97.52Zm.7,15a5.87,5.87,0,0,1,.27-1.95s0-.2,0-.27a2.45,2.45,0,0,1,.35-.31l.27-.43.2-.2a4.32,4.32,0,0,1,1.67-.47c0,.23.31.35.35.47s.23.43.23.47a2.07,2.07,0,0,1-.47,1.13,5.81,5.81,0,0,1-1.33,1.09l-.27.31a2.42,2.42,0,0,1-1,.66C385.88,113,385.84,112.68,385.84,112.48Z"/><path class="cls-2" d="M402.13,123.82a3.21,3.21,0,0,0,.35-.62s0-.08,0-.16l.16-.16a.57.57,0,0,1-.08-.16l0-.16v0l.12-.16a2.07,2.07,0,0,1,.54-.43l.23,0s.16-.12.16-.16l0-.08a1.64,1.64,0,0,1,.31-.12h.19c.16-.08.31-.12.39-.23l.12,0s.19-.27.27-.27H405c.23-.12.35-.31.55-.43l.27-.08,0-.12a1.8,1.8,0,0,0,.39-.2s.16-.23.23-.23.31-.12.35-.15.2-.19.27-.19l.08-.12a1,1,0,0,0,.43-.47v-.08h-.19a1.14,1.14,0,0,0-.39.08c-.16.08-.23,0-.39.08a1.31,1.31,0,0,0-.47.16c-.16.08-.66,0-.82.15l-.16.16c-.12.08-.31,0-.35.08l-.08.08-.23,0-.08,0c-.08,0-.27,0-.39.12h-.51l-.12.12-.08,0h-.23l-.23,0c-.23.08-.54,0-.7.23h-.31l-.08,0h-.27c-.31,0-.51,0-.62-.27a1.8,1.8,0,0,1-.08-.31s0-.23,0-.31l-.08-.2v0l.08-.12-.08-.2a.82.82,0,0,0,.27-.54l-.08-.08v-.08l.16-.16s.12-.19.12-.23,0-.23,0-.27l.23-.12.19-.16h.08l.08,0c.08,0,.19-.19.31-.27h.2l.12,0h.16c.08,0,.23-.19.39-.27,0,0,.27-.15.31-.15h.08l.16-.08.12,0,.23-.2.08-.08h.16a1.22,1.22,0,0,0,.27-.23,2.67,2.67,0,0,1,.62-.47s.16-.16.16-.16l0,0,.16-.12.31-.31c.08,0,.16,0,.16-.12a6.22,6.22,0,0,0,.51-.51,2.36,2.36,0,0,1,.31-.23,1.82,1.82,0,0,0,.39-.39l.12-.19,0-.12v-.08a.27.27,0,0,1,.16-.19c0-.08,0-.08-.08-.08s-.16.08-.31.08h-.16c-.39.12-.66.23-1.05.35l-.16,0a2,2,0,0,0-.7.16l0,0a.58.58,0,0,1-.16.08l-.23,0-.12.08c-.08,0-.31.08-.39.08l0,.08-.39,0s-.23.08-.27.16l-.12-.12,0,0,0,.12H403a.42.42,0,0,0-.35.43c-.12,0,0-.16-.16-.16s0,.16-.27.16a1.67,1.67,0,0,1-.86-.23l0-.08-.12-.08a1.15,1.15,0,0,1-.51-.7l0-.08v0l0-.12v0s-.31-.27-.31-.35a1.63,1.63,0,0,1,.43-.58c.08,0,.7-.15.55-.31a2.28,2.28,0,0,0,.78-.19v-.12c.08-.12.2,0,.31-.12l0-.2v-.86l0-.08c-.08-.2,0-.43-.08-.62l0-.08c0-.19-.12-.35-.16-.54l0-.2v-.08a2.79,2.79,0,0,1-.12-.31c0-.08,0,0-.16-.19v0l0-.08c0-.16-.19-.16-.23-.27v-.23s0-.12-.12-.12a.63.63,0,0,0-.2-.08l-.47.19h0c-.12,0-.16-.08-.27-.08a2.48,2.48,0,0,0-.47.23l-.2.08c-.16.12-.78.12-.82.35l-.08-.08-.27.15-.12,0h0a1.76,1.76,0,0,1-.74.19.66.66,0,0,1-.35-.08,1,1,0,0,1-.94-.23l-.08-.08a.48.48,0,0,1-.19-.08v0a.58.58,0,0,0-.16-.08v-.31l-.08-.08s0-.39,0-.43l0-.19v-.08l0-.08v0c0-.08-.12,0-.12-.16s0-.19.12-.27l.12-.08c.16-.16.27-.35.43-.43v-.12l.12,0,.12-.12a1.36,1.36,0,0,1,.51-.43h.08l.16-.12h.12V105l.31,0,0-.08a3.71,3.71,0,0,1,.47-.35l.12-.08h.27l.08-.08a6,6,0,0,1,1.79-.54s.47-.16.51-.16h.16c.31,0,.62-.16.9-.19l.39,0h.16l.12-.12.31,0,.12,0h.08c.08,0,.16,0,.31,0h0l.16,0h.23s.39-.12.43-.12h1.95l.12,0,.12,0h.93c.08,0,.39,0,.39.12l.31-.08c.47,0,.78.08,1.25.08a1.06,1.06,0,0,0,.35,0s.19.08.23.08h.08s.08,0,.16,0l.2.08h.08c.08,0,.27.08.31.08s.31.08.39.08l0,.08-.12.08h.16c.08,0,0-.08.08-.08a.52.52,0,0,1,.2.12s0-.08.12-.08H412a2.26,2.26,0,0,1,.27,0h0a2.67,2.67,0,0,1,.31.12l0,0h.08c.2.08.35.23.47.23v0l.16.12.23.08,0,.16.16.16a.88.88,0,0,0,0,.16l-.12.12a.16.16,0,0,0,.16.16s-.08.27-.08.31v.12l.16.16c0,.16-.23.35-.27.47h-.47l-.16,0h-.08c-.08,0-.12,0-.16,0s-.12,0-.16,0h0l-.08,0h-.16l0-.12h-.16l-.12.16h-.2l-.12,0h-.2l-.12.08H411l-.12-.08,0,.12a.86.86,0,0,1-.16,0,1,1,0,0,0-.19.08l0-.16h-.12a1.14,1.14,0,0,0-.62.16s-.08-.12-.08-.16a2.4,2.4,0,0,1-.31.16l-.23,0-.08,0-.08-.08h0a1,1,0,0,0-.35,0v0h0c-.16,0-.08-.2-.31-.2h-.12l-.08.12c-.23.08-.31,0-.47,0a2,2,0,0,0-.39.12.21.21,0,0,1-.2.16c-.12-.12,0-.2,0-.27l-.16,0c-.08,0-.12.2-.23.31s-.31.23-.31.31a.39.39,0,0,1-.12,0l-.23,0,0,.16,0,0v.31s-.16.19-.23.27l0,.08v.19h0l0,.12s0,.16-.12.19l-.08.16v.27l0,0c-.08.08-.08.23-.27.23l.12,0v.23l-.16.15v.2l-.12.08c0,.08,0,.23-.16.27h0l-.12.31,0,.19v.08l-.08.2V111h.23l.08-.08a10.16,10.16,0,0,1,1.79-.31h.23l.08,0,.16,0h.31l.12,0h0l.08,0h.08a6.1,6.1,0,0,0,.62-.12c.31,0,.51.08.78.08h.31c0-.08.08-.08.16-.08a2.77,2.77,0,0,1,.7.19l.27,0v0a.58.58,0,0,1,.16.08,2.69,2.69,0,0,1,.9.66l.08.12v.19c0,.12.08.23.08.31a1.5,1.5,0,0,1-.31.43l-.08-.08c-.12,0-.31.12-.31.16v.08s.08.16.16.16c-.23.12-.23.39-.47.54h-.12l0,.23s-.16.19-.2.19-.27.16-.31.2l-.12.23h-.23c-.31,0-.39.08-.51.19s-.12.23-.2.31h-.19l-.08.16c-.12.12-.39,0-.47.27l-.08.16c-.12.39-.23.16-.43.31-.08,0-.12.08-.12.16v.08a2.42,2.42,0,0,0-.16.23h0a4.69,4.69,0,0,0-.43.39l0,.12a3,3,0,0,1-.7.47v0a.78.78,0,0,0,.23.08h0l0-.08h.23l.08,0c.08,0,.16,0,.23,0s1.05-.16,1.29-.23c.08-.08.23,0,.35,0l.12-.12c.08,0,.27,0,.39-.08h.94l.35.19a.13.13,0,0,1,.12-.12l.12.12c.54.27.74,0,.74.66v.31a2.29,2.29,0,0,0-.19.47l-.12.12s-.16.16-.16.19l0,.16-.12.08c-.12,0,0,0,0,.08s-.19.31-.27.39h-.08v0l-.12.27-.12,0a5.31,5.31,0,0,0-.54.43.59.59,0,0,1-.31.08c-.12,0,0,.16-.12.23l-.2.08,0,.16-.2.12v.12l-.27.16s-.43.35-.47.51v.08l0,0-.12.08h0c-.16.08-.51.12-.51.31l0,.12v0c-.12.16-.16.12-.31.19l0,0c-.08,0-.16.16-.23.16l-.08-.08v.16s.08,0,.16,0c.23,0,.66,0,1-.12l.66-.08h.9l.08,0c.27,0,.51,0,.78-.08.55-.12,1.13-.19,1.64-.31s.74-.16,1.09-.16h.2a.21.21,0,0,1,.12.16,2.23,2.23,0,0,0-.16.31c0,.08-.35,0-.35.12l0,0-.16,0,0,.12-.08,0-.2.23a.85.85,0,0,0-.23.08,2.73,2.73,0,0,1-.54.23h-.08l-.23,0-.16.08-.23,0-.08.08c0,.08-.39.16-.43.16-.27.08-.74,0-.82.39a.57.57,0,0,0-.16-.08v.08h-.16v-.12c-.08,0-.31.16-.31.23s-.31,0-.43.08l0,.12s-.16,0-.2,0l-.16,0-.12.16v0H408l0,0a1.91,1.91,0,0,0-.27.12l-.39,0h-.12l0,.12a1.33,1.33,0,0,1-.23,0l-.2,0-.12,0h-.08c-.08,0-.27,0-.31,0s-.2.16-.31.16h-.43l-.55,0h-1.75l-.19,0-.16,0h-.16l0,.12a1.36,1.36,0,0,0-.23,0c-.23-.16-.2-.55-.23-.74Zm-1.21-22.56c.23,0,.08.35.23.51l0,.08.12,0,0,0a.18.18,0,0,1-.12-.12v-.19l0-.12v-.19c0-.16-.16-.23-.16-.27s0-.16,0-.19-.16-.08-.16-.16l.08-.08a1.13,1.13,0,0,1-.08-.31.88.88,0,0,0,0-.16l-.08-.16,0-.08,0-.08v-.08a2.07,2.07,0,0,1,.12-.47V99a.56.56,0,0,0,.08-.16l0-.12v-.16l0,0v-.16a3.6,3.6,0,0,0-.19-1.09c0-.23,0-.43,0-.7,0,0,0-.15,0-.19v-.78l0-.08v-.23l0,0v-.16L401,95a2.18,2.18,0,0,1,0-.27,5,5,0,0,0,.16-.74v-.16a.4.4,0,0,0,0-.16l.08-.08a2.51,2.51,0,0,1,.08-.27l.16-.16c.08-.08.08-.31.12-.43v0l.2-.12,0-.08c.08-.12.43-.12.55-.12h.08l.12,0c.35.08.47.12.59.51l0,.19v.08c0,.27-.12.55-.12.74v.16s0,.16.08.16h-.12s0,0,0,.16a.24.24,0,0,1,0,.16H403c0,.08-.16.16-.16.27h0c0,.16.12.2.12.23s-.12.16-.12.27v.12l.12,0-.08.08,0,.12-.12.12v.12l.08.08a.15.15,0,0,1-.08.12l-.08,0c0,.12,0,.12,0,.2v.19a.3.3,0,0,0,0,.19s0,.12-.08.12v.08s0,.23,0,.23l0,0v.27l0,0,.2-.12a2.15,2.15,0,0,0,.31-.23s.12-.12.16-.12l.16,0c.27-.12.51-.39.82-.54.08,0,.43-.16.47-.2l.12-.12.08,0a.69.69,0,0,0,.51-.47s.08,0,.08-.08a13.1,13.1,0,0,0,.39-1.95c0-.2.12-.31.12-.51V93l0-.12v-.43a1.26,1.26,0,0,0-.23-.27v-.47l.08-.12.31-.27.08,0c0-.08,0-.08.12-.12s.23-.16.31-.16h.08c.08,0,.23,0,.27,0l.12-.08a2.88,2.88,0,0,1,.62,0h.35a.79.79,0,0,1,.23.63,3.77,3.77,0,0,0,0,.62c-.16.12-.16.43-.31.51a1.14,1.14,0,0,1-.16.62l-.08.12v.12a1.61,1.61,0,0,1-.08.23,3.31,3.31,0,0,1-.19.9s-.16.43-.16.47a2.22,2.22,0,0,1,0,.27h1.05a.25.25,0,0,1,.2-.08c.2,0,.16.16.16.23l0,.16v0a.75.75,0,0,1-.2.35c0,.08-.2.08-.27.12l-.16.08a4,4,0,0,0-.43.19l-.23.08c-.31.23-.39.47-.66.7l-.16.08v.16c0,.08-.19.23-.19.27v0l-.12.16,0,.12-.08.12s-.19.23-.19.31a5.18,5.18,0,0,1-.23.47.27.27,0,0,0-.08.16h0a3.53,3.53,0,0,0-.2.39v.12l-.12,0c-.08.08-.39.55-.35.62-.16.16-.2.23-.35.31l-.16.16-.08.12a1.14,1.14,0,0,1-.39.47l0,.08-.12.08v.16l0,0-.08.12-.08,0-.2.16a2.4,2.4,0,0,1-.27.08s-.43.16-.47.16a2.56,2.56,0,0,1-.58,0C401.35,102.35,400.92,102.16,400.92,101.26Zm1.87-.78c0,.12,0,.12.12.12.39,0,.9-1,1.13-1.25l.16-.27a.5.5,0,0,1,.16-.27h0l0-.16s.16-.23.16-.31.16-.23.19-.31.16-.35.27-.39h0a1.41,1.41,0,0,0-.82.51l-.66.62c0,.12-.23.12-.23.12V99l0,.12a7.19,7.19,0,0,0-.31.82v.16l-.12.16A.74.74,0,0,0,402.79,100.48Z"/><path class="cls-2" d="M375.75,127.56s0,0,0,.08a9,9,0,0,1,1.64-.55l.2,0s.19-.15.23-.15H378l.31,0,.08,0,0,0,.31,0a14.45,14.45,0,0,1,1.91-.12H381a4.5,4.5,0,0,1,.54.08c.2,0,.31.19.47.35v.31l.08.19v.12l-.08.16s-.08.31-.08.35l-.08.16v.16s-.12.19-.12.27V129l0,.08a1.66,1.66,0,0,0-.12.16c0,.08,0,.35,0,.39s0,.19,0,.23l0,.08h-.08c0,.08-.08.43-.08.47l0,.12v.23c0,.12-.12.27-.2.47s0,.27-.08.47-.12.2-.16.31,0,.35-.08.5a1.75,1.75,0,0,0,0,.19,2.19,2.19,0,0,0-.2.55.38.38,0,0,0,0,.12,3,3,0,0,0-.12.51,2.37,2.37,0,0,0-.12.43v.2l-.08.19,0,.19a.57.57,0,0,0-.08.16,2.06,2.06,0,0,1-.12.47l0,0s0,.16,0,.2V136a.86.86,0,0,0,0,.16,4.68,4.68,0,0,0-.12,1.29h-.16a.43.43,0,0,1,.12.35v.08l0,.16v.27s-.16.16-.2.16l0,0c-.08.12-.2,0-.2.23-.08,0-.08-.12-.27-.12s-.62.31-.82.39h-.08l0-.08a1.24,1.24,0,0,1-.31-.47,3.59,3.59,0,0,1-.16-.62l0,0s.08-.16.08-.2a1.8,1.8,0,0,0,0-.19v-.16s0-.12,0-.12,0,.08,0,.12l0-.08v-.23l.08-.15a8.43,8.43,0,0,1,0-1.4l0-.08c0-.16,0-.31.08-.39l.08,0,0-.12a.81.81,0,0,1,.27-.7l0,0a1.72,1.72,0,0,1,0-.19l-.16,0v-.08c0-.08.12-.19.12-.23s0-.2,0-.27v0l.23-.31a.1.1,0,0,1-.12-.12s.2,0,.2-.08l0-.23,0-.08v0l-.08-.08.08-.23v0l0,0v0l.12-.08v-.16l.08-.15v-.16s.16-.12.16-.16l0-.23v-.08a1,1,0,0,1,.08-.27l0-.23.08-.2c0-.08,0-.31.16-.35,0,0,0-.39,0-.47v-.16c0-.12.12-.12.12-.27l0-.08v-.31l-.12-.08H379a5.54,5.54,0,0,0-.78.2h0l-.43.12s0,.08,0,.08,0,0,0-.08c-.19,0-.39.12-.54.15l-.23,0a.83.83,0,0,1-.31.19,5.9,5.9,0,0,1-.74.31s0,.12,0,.12,0-.12,0-.12-.23.27-.27.27l-.2,0-.16.12,0,0s0,.12,0,.12,0,0,0-.08c-.16.12-.43.23-.55.35l-.08.08h-.23l-.16.16a1.74,1.74,0,0,1-.31.08l-.55-.54a.24.24,0,0,0-.12-.19c.08,0,0-.27.08-.31s.12-.2.12-.23l.23-.2a3.55,3.55,0,0,1,.78-.74s.51-.35.66-.47l.12-.08,0-.12h.12l.2-.08a.63.63,0,0,0,.2-.08S375.71,127.56,375.75,127.56Zm-1.95,1.28s0,.08,0,.08S373.76,128.84,373.8,128.84Zm1,1.44s0,.08,0,.08S374.74,130.28,374.78,130.28Zm.27-2.38s0,.08,0,.08S375,127.91,375.05,127.91Zm.31,2s0,.08,0,.08S375.28,129.93,375.36,129.93Zm1-.58s0,.08,0,.08S376.34,129.35,376.38,129.35Zm1.25,7.48s0,.08,0,.08S377.58,136.83,377.62,136.83Zm3.7-6.08s0,.08,0,.08S381.28,130.75,381.32,130.75Zm.51-2s0,.12,0,.12S381.79,128.76,381.83,128.76Zm.2-.66s0,.08,0,.08S382,128.1,382,128.1Zm11.92,19.17a0,0,0,0,1,0,0h-.08v.27a.25.25,0,0,0-.23.23l.08,0a2.31,2.31,0,0,0-.31.31c-.23,0-.31,0-.39.12l.08,0,0,0-.16.08,0,.12c-.08.12-.08.23-.19.31a1.35,1.35,0,0,1-.43.31c-.08,0-.16,0-.19.12s0,.27,0,.31-.12,0-.12.08l.08,0a.17.17,0,0,1-.16.12h-.08l-.23.31,0,0a.56.56,0,0,1-.08.12l-.23.19a2.72,2.72,0,0,1-.27.35c-.08,0-.27.23-.31.23a1.22,1.22,0,0,0-.51.66s0,.08,0,.16,0,.08-.08.19.31,0,.31.08a4.19,4.19,0,0,0,1.21.08c.62,0,1.29,0,1.91-.08l.08,0c.39,0,.9,0,1.29,0v0s.16,0,.19.08-.31.15-.35.19l-.19,0c-.12,0-.27.19-.43.27s0,0-.08.08v.08a0,0,0,0,1,0,0,.78.78,0,0,1-.19.12l-.16,0-.08.12a.5.5,0,0,1-.12.08l-.39,0-.39.39c-.31,0-.58.27-.94.35h-.08l-.08.16h0c-.08.08,0,.08-.08.08s0-.16-.23-.16-.12.12-.16.12-.27,0-.35.12c0-.12-.12-.12-.19-.12l-.2,0-.16,0h-.08a3.29,3.29,0,0,1-.9-.2c-.08,0-.08,0-.16,0v0l-.16-.08-.2-.16h0s-.08.16-.2.16-.16-.16-.19-.2c-.23-.16-.43-.31-.62-.47,0,0-.31-.47-.35-.55a1.5,1.5,0,0,1-.31-.93,2.43,2.43,0,0,1,.39-.86l.12-.08c.08-.08.31-.51.43-.62a7.33,7.33,0,0,0,.51-.66l.08-.08a2.72,2.72,0,0,0,.35-.23c.08-.12.51-.51.58-.62-.08-.19.23-.23.27-.27l.16-.19.2-.2.08-.15.23-.08a1.27,1.27,0,0,0,.12-.23v-.12c0-.12.12-.16.12-.23s0,0,0-.16.12,0,.16-.12l.12-.23.12-.12a.66.66,0,0,0,.08-.19l0,0a2,2,0,0,1-.31,0c-.2.08-.35.15-.58.27s-.51.08-.58.27c-.08,0-.39.08-.43.08l-.19.08h-.12c-.27.08-.35.35-.66.35l-.16,0h0a.87.87,0,0,1-.43.19h-.12a.38.38,0,0,0,0-.12.4.4,0,0,0-.16,0L387,147v-.16l-.12-.08s-.12-.27-.16-.31v-.12l-.12,0,0-.15-.08-.16v-.08a4.13,4.13,0,0,0-.16-.39v-.19l0-.08-.08-.16V145l.12-.2v-.23l0-.08,0-.19,0-.08.08,0,.2-.19.08,0,.08-.23s.2-.12.2-.16v-.08s0-.15-.08-.15l.08-.08.16-.08.08-.16.12-.15v0l0-.12,0,0s.23-.31.23-.35l.08-.12a2.86,2.86,0,0,0,.19-.62v-.08c.08-.12.27-.12.31-.2v-.12l.08-.08v0l0-.12v0l.08,0v-.08l.12-.12v-.27l.08-.19s0-.19,0-.23v-.08c-.08,0-.23.08-.31.08h-.12a4.14,4.14,0,0,0-.39.16h-.12l-.19.08a.83.83,0,0,1-.23.16s0,.08,0,.08a0,0,0,0,1,0,0,1.13,1.13,0,0,1-.35.08h-.12s-.31.15-.35.15l-.39.08-.16.16a.92.92,0,0,1-.62.27h-.08l-.19,0-.08-.16a3.21,3.21,0,0,1-.39-.35v-.12l-.08.08a.59.59,0,0,1,0-.23.79.79,0,0,1-.35-.55v-.12l.08-.16v-.12l.19-.12v-.19l.16-.08.08-.08a4.71,4.71,0,0,0,.58-.35l0-.08.23-.23c.12-.16.23-.12.35-.23l.08-.15.19-.08,0,0v-.2a2.62,2.62,0,0,1,.47-.23l.2-.19s.27-.19.31-.23.08-.19.2-.27.27-.08.35-.27,0-.27,0-.31v0a2.37,2.37,0,0,0-.2-.47s-.08-.31-.08-.43a3,3,0,0,0-.12-.5l0,0v-.08a2.17,2.17,0,0,1,0-.27c0-.16-.12-.31-.12-.43a.78.78,0,0,1,.08-.39v-1.13s-.08-.31-.08-.35.08-.23.08-.31v-.7a3,3,0,0,1,.08-.62v-.16s.08-.16.12-.16v-.58l.12-.23s0-.2,0-.23v-.2s.12-.16.12-.23v-.31l0-.19c.12-.43,0-.9.12-1.36l0-.08a5,5,0,0,0,.16-1v-.08l0-.08,0-.08a1.67,1.67,0,0,0,0-.19v0l0-.12.12-.08a.86.86,0,0,0,0-.16s0-.23,0-.23a2.78,2.78,0,0,1,.12-.47v0l0,0,0-.08a1.39,1.39,0,0,0,0-.27s0-.27,0-.31a3,3,0,0,0,.12-1c.16,0,.16-.15.27-.27a.4.4,0,0,1,.31-.16l.62,0,.16-.12h0l.12.08.35,0,.12,0s.12.08.12.08l.35,0,.16.12h.08a1.85,1.85,0,0,1,.86.23c.19.15.58.47.58.78a2.37,2.37,0,0,1-.23.74,4.07,4.07,0,0,1-.2.47c0,.16-.08.35-.12.54,0,0,0,0,0,0,0,.16-.08.31-.12.43s0,.08,0,.08h0s0,.12,0,.15l-.08.08v.12l-.12.08a3.89,3.89,0,0,1-.12.43s-.12.39-.12.47-.23.35-.23.39a4.67,4.67,0,0,0-.23.93v.12s-.12.12-.12.23v0l.08,0-.08.16s0,.19,0,.23c0,.19-.2.35-.2.59l.08,0a1.63,1.63,0,0,1-.16.27v.35c.08,0,.08,0,.08.08s-.27.2-.27.31l.16.16v.08s0,.08,0,.15,0,.12.12.08c0,.23-.23.16-.23.39l.12.08s-.16.23-.16.27l0,.08a.4.4,0,0,0-.12,0v.08s.31,0,.31.08v0l-.08,0h0l-.08,0h-.08l.08.08v.12l-.12.08.19.16,0,.12a2.63,2.63,0,0,1-.16.43s-.08.39-.08.43l0,.08.08.16,0,.12v.12L390,134v0l0,.08a.55.55,0,0,0,.16.16l.16-.08s.16-.12.19-.12l.12,0,.31-.27s.08-.19.16-.23h.16a.31.31,0,0,0,.16-.16l0-.08,0,0,.16,0,.12-.12L392,133a1.33,1.33,0,0,0,.43-.39,1,1,0,0,0,.08-.19v0l.08-.08s.27-.12.31-.12.16-.27.19-.31l0-.08h0l.12,0a2.38,2.38,0,0,1,.47-.35l.35-.39a4.3,4.3,0,0,0,.43-.19s.19-.16.23-.16.31-.2.39-.2l.08-.08a1,1,0,0,1,.47-.08h.12c.08,0,.2.08.27.08l.08.08h.23l.31.16s.43.19.47.19c.31.08.58,0,.82.31,0,0,.12.23.12.27l0,0v.39a.52.52,0,0,0-.12.08c-.23.12-.35.43-.55.51s-.43.12-.47.12a6.47,6.47,0,0,0-.74.39s0,0,0,0,0,0,0,0a.3.3,0,0,1-.16.08c-.16.12-.16,0-.35.08a1.86,1.86,0,0,0-.58.23l-.12.08a.83.83,0,0,1-.78.35s0,.12,0,.12l-.12,0h-.16l-.16.12-.16.08-.08.08,0,.12-.51.08-.55.27s-.12.08-.12.08c-.31.23-.62.15-.86.35l-.08.08a5.23,5.23,0,0,0-.9.66c-.12-.08-.23,0-.2.12a7,7,0,0,1-.82.66l-.12.08-.23.08,0,.12a.87.87,0,0,1-.19.12l-.12,0,0,.08s-.12.08-.12.08l-.08,0c-.08,0-.12.31-.19.35a1.39,1.39,0,0,0-.35.16l-.08.08,0,.16s-.12-.12-.16-.12a.83.83,0,0,0,0,.23l-.12,0c-.12,0-.12.12-.12.2h.12l.16-.08a3.8,3.8,0,0,0,.43-.12l.43-.16.16-.12.23,0,.16-.08s0-.08,0-.08,0,.08,0,.08l.12-.08.47,0h.27c.08,0,.16-.12.23-.2l.19-.08a.59.59,0,0,1,.27-.12H391c.08,0,.16-.08.27-.08a2.26,2.26,0,0,1,1.05.35c.31.12.78.12,1,.55V138s.16.12.16.15v.16c0,.12-.12.12-.12.27l.12.12v.08h-.23l0,0s-.12.27-.12.35a.79.79,0,0,1-.16.23h0a1.78,1.78,0,0,1-.31.08v0h0l.27,0c-.16.12-.16.27-.23.43s-.12.2-.16.31-.2.31-.2.35l-.12.08.12.08,0,.08s-.2,0-.2.08v.12a1.49,1.49,0,0,1-.23.43h0l-.2-.08a.89.89,0,0,1-.16.2h.16c0,.23-.12.08-.12.19v0l0,.16v0c0,.08-.43,0-.47.31v.12a.18.18,0,0,1-.12.12h0s.12-.08.19-.08v0c0,.27-.35.2-.35.47v.08l.08.08c0,.16-.19.31-.23.39a.57.57,0,0,0-.08.16v0c.43,0,.82-.2,1.25-.23.12,0,.74-.08,1-.12,0,0,0-.16,0-.16s0,.16,0,.16h0s.39-.08.51-.08.16-.12.43-.12a3.22,3.22,0,0,1,.62,0l.16.16.08,0,.27,0a1.29,1.29,0,0,1,.86.58,1.39,1.39,0,0,1,.08.43c0,.08-.16.08-.19.16s-.16.39-.23.47c.08.12-.12.35-.23.47a.88.88,0,0,1-.27.39c-.08.08-.16.08-.23.23v.19s-.08.12-.12.16h-.12a4.2,4.2,0,0,0-.27.43l-.31.19S394,147.27,393.95,147.27Zm-9.7-8.26c.08,0,.08.08,0,.08S384.21,139,384.25,139Zm1.52-1.09s0,.08,0,.08S385.73,137.92,385.76,137.92Zm1.44-7.48s0,.08,0,.08S387.13,130.44,387.21,130.44Zm.08,7.71h.08v-.08Zm.31,4.21s0,.12,0,.12A.06.06,0,1,1,387.6,142.36Zm1.48,6.31s0,.08,0,.08S389,148.67,389.08,148.67Zm.9-14.26h0v0h0Zm.35,1.4s0,.12,0,.12S390.28,135.82,390.32,135.82Zm.27,8.07v-.12l-.08,0,0,0Zm.08-.54s0,.12,0,.12A.06.06,0,1,0,390.67,143.34Zm.23-7.91s0,.08,0,.08S390.83,135.43,390.91,135.43Zm.16,7s-.08.08,0,.08S391.06,142.48,391.06,142.4Zm0-7.13s0,.08,0,.08S391,135.27,391.06,135.27Zm.39,6.86s0,.08,0,.08S391.41,142.13,391.45,142.13Zm.7-7.4s0,.08,0,.08S392.12,134.72,392.15,134.72Zm.23,14.14s-.08,0-.08,0S392.39,148.95,392.39,148.87Zm.16-8.57s0,.08,0,.08S392.51,140.3,392.54,140.3Zm.39,13s0,.08,0,.08S392.89,153.27,392.93,153.27Zm.58-5.5s0,.08,0,.08S393.56,147.78,393.52,147.78Z"/><path class="cls-2" d="M406.72,139.71s0,.12,0,.12h-.08v.23s-.08.2-.08.23l-.08.2v.35l0,.12a.48.48,0,0,1-.08.2s-.12.47-.12.54a6.57,6.57,0,0,0-.35,1l-.16.12c-.16.2-.12.55-.23.82l-.08.12a1.49,1.49,0,0,0-.23.43v.12l-.16.23a.93.93,0,0,0-.19.7l-.08.08-.12.08a.17.17,0,0,0,0,.12l-.08.15a1.4,1.4,0,0,1-.23.27.06.06,0,1,1,0,.12s0,0,0-.08a.12.12,0,0,0,0,.08l-.16.12c-.12.12-.23.31-.47.31l-.47.47c-.19-.08-.47.08-.66.12h-.23a1.21,1.21,0,0,0-.47.19v-.08c-.08,0-.19,0-.23,0l-.08-.08-.19.08h0a.83.83,0,0,1-.62-.39v0l.08-.12-.31-.31a2.39,2.39,0,0,0-.27-.54l0-.2-.12-.12-.08-.16-.12-.12v-.27a2.21,2.21,0,0,1-.12-.7c-.08,0-.08-.27-.12-.31l-.12-.19v0c0-.08.16-.08.23-.31,0-.08,0-.43,0-.51a1.61,1.61,0,0,1,.08-.35c0-.19.12-.35.12-.58a2.25,2.25,0,0,1,0-.27l0-.12c0-.08.19-.19.19-.27s-.08-.12,0-.16a4.59,4.59,0,0,0,.23-.66l0-.27s.12-.31.12-.39v0a2.36,2.36,0,0,0-.2-.7l0-.12v0a4.93,4.93,0,0,1-.16-.74v-.19l0-.12-.12-.12c0-.12.12-.31-.12-.39v-.35c0-.19.08-.35.08-.62,0-.08-.08-.08-.08-.12,0-.23.08-.43.08-.62a1.08,1.08,0,0,0-.08-.47c.19-.12.19-.58.19-.78s.12-.35.12-.47l-.08-.08c0-.16.12-.86.12-1a5.63,5.63,0,0,1,.16-1.17l.12-.23v-.16a2.19,2.19,0,0,1,.08-.39s.12-.31.16-.31l0-.08v0l0-.16v0l.08-.12,0-.08c.35-.27.23-.62.66-.7l.47,0h0c.23,0,.35,0,.35.19s-.12.27-.16.47c0,0-.12.27-.12.31s-.16.27-.16.35,0,.54,0,.62-.23.23-.23.27c-.12.19,0,.27,0,.54l0,0a.57.57,0,0,1,.08.15v.08a1.32,1.32,0,0,0-.12.31.23.23,0,0,0-.12.23h0l.12-.08c0,.2,0,.39,0,.62v.08l0,.12,0,.08v.16c0,.12,0,.19,0,.39l-.12.15v.78s0,.31,0,.35v1.91c-.08,0-.08,0-.08.08s.08.23.19.23a7.1,7.1,0,0,1,.94-.94,5.38,5.38,0,0,0,.47-.43,2.63,2.63,0,0,0,.31-.12c.08,0,.23-.23.31-.23l.16-.08.16-.12h.08a4.55,4.55,0,0,1,.43-.2c.27-.12.94-.16,1-.51v-.23l.12-.12v-.19l.08-.23V134l0-.16a5,5,0,0,0,.2-.66v-.51l0-.15c0-.08,0-.54,0-.62s.08-.35.08-.43v-.27c0-.15.16-.23.23-.39s0-.31,0-.39a2.59,2.59,0,0,0,.2-.74v-.31l.08-.2s.08-.23.08-.27v-.16l.12-.16.12-.23a2.94,2.94,0,0,1,.86-.43l.12,0c.23.12.51.12.66.23l.08,0v.12l.16,0v.12c0,.12,0,.23,0,.31s0,.08,0,.12c0,.2-.12.23-.12.35l.08.08v.19c0,.23-.19.43-.23.66a5.05,5.05,0,0,0-.2.82l0,.15v0l0,.08,0,.16a1.23,1.23,0,0,1-.08.27v.66a4.36,4.36,0,0,0-.08.54c0,.12,0,.62,0,.74s-.19.35-.19.59a1.36,1.36,0,0,0,.23.62c.08.16.27.19.27.51s-.12.2-.27.39l-.58.58-.08.15v.35l-.12.23c0,.08-.12.43-.12.54a.86.86,0,0,0-.19.62s0,.51,0,.55L407,139l-.08.16.16.12c0,.23-.23.31-.35.47Zm-6.55-5.77s0,.08,0,.08S400.1,133.94,400.18,133.94Zm.23-2.45a.06.06,0,0,1,0,.12S400.37,131.49,400.41,131.49Zm1.56-.27s0,.12,0,.12S401.93,131.22,402,131.22Zm0,15.94s0,.12,0,.12S401.93,147.15,402,147.15Zm.51-3.12,0,.12c.08-.15.55-.15.62-.27a6.16,6.16,0,0,0,.51-1,3.43,3.43,0,0,0,.08-.39h0c0-.08.23-.59.23-.62l0-.12s.16-.58.16-.62a2.63,2.63,0,0,1,.23-.47v-.39l.08-.23s.16-.47.16-.58l.12-.27,0-.23a1.14,1.14,0,0,0,0-.62l-.08,0-.19.12-.19.23a1.62,1.62,0,0,0-.47.58,2.56,2.56,0,0,1-.27.47l-.16.31a1.64,1.64,0,0,0-.27.59v.08c-.08,0-.19.47-.27.59v.27c0,.08-.27.39-.27.51s0,.39,0,.47a6.86,6.86,0,0,0-.12,1.29Zm2.69-8.84s0,.12,0,.12A.06.06,0,0,1,405.16,135.19Zm3.27-4.13s0,.08,0,.08S408.36,131.06,408.44,131.06Zm4.44,7.05s0,.12,0,.12A.06.06,0,0,1,412.88,138.11Zm2.1-8.92s.08,0,0,.08a.79.79,0,0,1,.23-.08h.55l.12.08h0l.23-.12h0l.16,0,.27-.12a1.19,1.19,0,0,0,.27.08l.23,0a.78.78,0,0,1,.66.2l0,.08,0,.16.19.12.23.35,0,.12,0,.2v0c0,.08.31.16.43.2a.51.51,0,0,0-.12.19v.12c0,.15.12.19.16.39v0c-.16.43-.35.27-.55.51a.81.81,0,0,1,.2,0V132c0,.12,0,0-.12.12l-.08.12h-.16l-.12.08v.16l-.19.08c-.16,0-.16.23-.2.31l-.12.12v0l.12.19v0a.63.63,0,0,1-.12.23l-.16,0,0,.08c-.08.16-.2.16-.2.35s.12.08.12.12v.08c0,.15-.23.35-.27.47l-.08.31,0,.12v.08l-.16.19v.08c0,.23.19.12.19.47v.23l-.12.16v.23a.8.8,0,0,1-.19.62v.66s0,.12,0,.12c0,.19.16.23.16.35s-.27.23-.27.51c0,.12.23.08.23.23s0,.08-.08.08,0,.55,0,.62l-.12.12v.86c.16.08.12.43.16.63h0v.82l-.12.15v.27c0,.39.12.7.12,1.09a5.38,5.38,0,0,1-.12.66l0,.2v.9c0,.16-.12.23-.27.23l0-.08c0,.08-.12.08-.12.08s-.12-.08-.2-.08a.41.41,0,0,0-.35.2l-.08.12h-.16s0,.12,0,.12-.08,0-.08,0v.16a.35.35,0,0,1-.43.12l-.31.31h-.23c-.31-.12-.39-.58-.51-.9v-.2l-.12-.16c-.12-.39,0-.9-.19-1.29,0-.19-.12-1.05-.12-1.21s-.12-.62-.12-.66,0-.39,0-.47v-.7c0-.08-.08-.54-.08-.62v0l.08-.16v0l-.08-.23V138.5l0,0c0-.27.23-.51.23-.7s-.19-.2-.19-.31.19-.19.19-.31S413,137,413,137v-.08l.12-.15-.08,0a.87.87,0,0,0,.12-.51c0-.23,0-.16,0-.27s0-.19,0-.31l0-.08a.93.93,0,0,1,.12-.47l0,0c0-.08.08-.23.08-.31V134c0-.08.08-.08.08-.16v-.66l0-.19v-.47l.08-.12c0-.31,0-.62,0-.94l.08-.12v0c0-.08.23-.47.23-.51v-.23l.08-.27,0-.08.08-.12.23,0,0-.12.23-.23s.16-.35.27-.35a.52.52,0,0,0,.12-.08S414.94,129.19,415,129.19Zm-1.52,3.16a.06.06,0,1,1,0,.12S413.42,132.35,413.46,132.35Zm2.49,13s0,.12,0,.12A.06.06,0,0,0,416,145.36Zm2.42-15a.06.06,0,1,1,0,.12S418.33,130.32,418.37,130.32Zm.08,1.44a.06.06,0,0,1,0,.12Z"/><path class="cls-3" d="M77.8,117.58c-.09-1.11-.18-2.22-.25-3.33-.25-3.66-.49-7.32-.76-11,0-.54-.34-1.07-.36-1.61a21.24,21.24,0,0,1,.11-3.05A17.75,17.75,0,0,0,77,96a15.32,15.32,0,0,1,.44-5.37c.42-1.36-.29-3.14-.44-4.73a18.26,18.26,0,0,1,0-2.48c.08-1.92-1.1-2.73-2.71-2.16-4.54,1.64-7.85,5.52-11.94,8-3.44,2.06-1.66.17-5.48,1.16-1.73.44-4.12-2.17-3.92-4.38a2.27,2.27,0,0,0-1.62-2.7,8.26,8.26,0,0,1-1.91-1.74c.86-.3,1.8-1,2.56-.82,3.29.81,6.26,0,9.11-1.75,1.41-.84,2.73-1.84,4.15-2.66,3.86-2.22,2.46-.63,6.31-2.87,1.77-1,3.46-2.23,5.17-3.38,1.09-.73.82-1.59.16-2.5-1.46-2-1.43-2,.66-3.3a4.41,4.41,0,0,0,1.24-1.38,2.71,2.71,0,0,1,3.52-1.36c1.81.64,3.62,1.28,5.44,1.91a5.82,5.82,0,0,1,4,5.11c0,.22,0,.52.11.64,1.32,1.39,1.08,3.16,1.34,5a51.22,51.22,0,0,1,.22,11.12c-.31,4.37-.15,8.78-.42,13.15a60.42,60.42,0,0,1-1.16,6.36c-.22,1.31-.29,2.65-.51,4a7.36,7.36,0,0,1-.64,1.82q-1.37,2.94-2.79,5.84a5.9,5.9,0,0,1-1,1.59c-1.8,1.77-3.59,3.56-5.5,5.17-1.54,1.29-2.79.78-3.29-1.29A17.81,17.81,0,0,1,77.8,117.58Z"/><path class="cls-3" d="M103.3,118.12c.09-2.2.22-4.4.22-6.6,0-1.13-.31-2.26-.34-3.4a12.62,12.62,0,0,1,.26-3.43,13.35,13.35,0,0,0,0-7.53c-.5-1.74.1-4,.21-6,.07-1.41.12-2.81.21-4.21.2-3.24.42-6.48.61-9.72.1-1.66.16-3.32.24-5,.14-2.83.26-5.67.44-8.49a13.1,13.1,0,0,1,.49-2.87c.92-3-.39-7.33-2.7-8.8-.92-.58-2.24-1.28-1.73-2.73a3.11,3.11,0,0,1,2.63-1.45,24.85,24.85,0,0,1,4.86,1,7.43,7.43,0,0,0,1.61.42c3.73-.09,6,2.79,7.51,6.31,1,2.33,1.07,5.28,1.47,8,.23,1.57.32,3.18.43,4.77.12,1.83.29,3.67.25,5.5-.07,3.29-.16,6.6-.46,9.88-.24,2.76-.27,5.69-2.05,7.9a.67.67,0,0,0-.15.32c-.43,3-.73,6.1-1.31,9.08a36.61,36.61,0,0,1-2,7.11,53.48,53.48,0,0,1-3.47,6,11.06,11.06,0,0,0-1.19,2.35c-.74,2.48-1.3,5-2,7.52a5.55,5.55,0,0,1-1.29,2.21,4.81,4.81,0,0,0-1.49,3.47c0,.6-.53,1.17-.82,1.76a9.62,9.62,0,0,1-.68-1.75,11.78,11.78,0,0,1-.05-2S103.16,121.31,103.3,118.12Z"/><path class="cls-4" d="M31.95,91.59c2.52-1.12,3.92-3.61,5.42-5.87.78-1.17,1.52-2.36,2.25-3.56a10.57,10.57,0,0,0,.81-1A67.6,67.6,0,0,1,44.54,75c1-1.14,2.19-1.88,2.21-3.71a2,2,0,0,1,.74-1.19c1.49-1.3,3-2.54,4.53-3.82a10.51,10.51,0,0,0,1.06-1.17c.64-.75,1.28-1.52,1.92-2.28.34-.4.84-.73,1-1.2a17.42,17.42,0,0,1,4.23-6.21,2.7,2.7,0,0,0,.38-2.31,13.81,13.81,0,0,0-3.13-4.22c-3.55-2.74-7.31-5.16-11.9-4.73a2.85,2.85,0,0,0-1.83,1.08c-.58.79-1.11,1.66-1.63,2.51-.44-.36-3.62,3.76-3.58,4.65A12.94,12.94,0,0,0,35.62,58a5.61,5.61,0,0,1-1,1.58c-1.48,2.2-3,4.4-4.42,6.61a5.29,5.29,0,0,0-.25.79c-.73,1.71-1.38,3.48-2.23,5.12l-.42.7c-1.72,2.75-3.46,5.49-5.19,8.24-.75,1.19-1.46,2.4-2.2,3.6-1.05,1.72-2.65,3.39-3,5.16a13.34,13.34,0,0,1-3.64,6.58,12.62,12.62,0,0,0-1.87,2.89c-.52,1-.78,2.15-1.33,3.14-1.06,1.93-2.22,3.8-3.36,5.69-1.64,2.73-4.88,8.22-4.84,8.24a11.7,11.7,0,0,0-.92,1.81,9.65,9.65,0,0,0-.25,1.86c.53-.37,1.26-.63,1.56-1.15a4.81,4.81,0,0,1,3-2.33,5.55,5.55,0,0,0,2.19-1.33c1.84-1.82,3.56-3.79,5.39-5.62a11.09,11.09,0,0,1,2.17-1.49,53.59,53.59,0,0,0,5.92-3.62A36.62,36.62,0,0,0,26,99.23c.72-.87,1.41-1.77,2.08-2.67a42.28,42.28,0,0,1,7.38.59,2.83,2.83,0,0,1,1.72,1.76c.57,1.81.84,3.74,1.25,5.61a3.39,3.39,0,0,0,.45,1.38,4.18,4.18,0,0,1,.65,3.9,8.24,8.24,0,0,0-.05,2.48c.13,1.49.49,3,.51,4.46,0,2-.35,4-.22,6a12.36,12.36,0,0,0,1.17,4.08c.45,1,1.56,1.72.43,3a1.31,1.31,0,0,0,.18,1.08A44.62,44.62,0,0,0,45,134.51a1.57,1.57,0,0,0,1.56.12,8.29,8.29,0,0,1,6.55-.94c.56.13,1.76-.42,1.84-.85.62-3.26,2.95-6.06,2.14-9.7-.09-.4.17-.88.13-1.32-.11-1.35-.25-2.7-.45-4a15.5,15.5,0,0,0-.53-1.54,67.32,67.32,0,0,0-1.83-6.95c-.87-2.29-2.25-4.33-3.28-6.55-.78-1.7-1.43-3.49-3.05-4.39-2-1.1-4-2-6-3.14a7.17,7.17,0,0,0-5-.83,40.08,40.08,0,0,1-4.94.49c-.59,0-1.19-.53-1.79-.81a10.47,10.47,0,0,1,.8-1.54Z"/><path class="cls-3" d="M230.77,81a10.92,10.92,0,0,1-.1-2.17c1.14-6.07-.08-11.9-1.41-17.79-.74-3.3-.7-6.77-1-10.17-.11-1.3,0-2.61-.24-3.89a2,2,0,0,0-3.14-1.31c-1.87,1.23-3.61,2.65-5.49,3.86-2,1.33-4.14,2.61-6.3,3.74s-4.49,2.08-6.78,3a5.59,5.59,0,0,1-1.71,0,9.6,9.6,0,0,0-3.29.27c-2.41,1.08-4.66,2.51-7.05,3.64a3.29,3.29,0,0,1-2.5.12c-2.59-1.28-5.09-2.75-7.59-4.23A2.64,2.64,0,0,1,182.79,53a3.55,3.55,0,0,0-.54-2.22c-.93-1.68-.74-2.33.93-3.13a34.75,34.75,0,0,0,8.6-5.2,3.9,3.9,0,0,1,1.29-.73c2.17-.77,4.38-1.41,6.51-2.27a16.86,16.86,0,0,0,2.84-1.83,6.79,6.79,0,0,1,.72-.53c2.07-1,4.18-1.89,6.2-3,1.49-.79,2.84-1.83,4.3-2.67s3.33-1.62,4.85-2.63c2.66-1.78,5.27-3.65,7.79-5.63,1.83-1.43,2.19-3.61,2.4-5.8.11-1.13.37-2.25.54-3.38a6.32,6.32,0,0,0,0-1.33A29.53,29.53,0,0,1,229,8.95a2.88,2.88,0,0,0-1.58-3c-1.81-1.08-1.82-2.1-.12-3.42A4.9,4.9,0,0,0,228,2c.45-.5.82-1.43,1.3-1.49a5.14,5.14,0,0,1,2.92.45,26.33,26.33,0,0,1,5.65,3.64A35.49,35.49,0,0,1,243.17,11c1,1.57,2.14,3.32,1.78,5.44a.47.47,0,0,0,0,.3c1.73,2.78.38,5.75.38,8.6a63.91,63.91,0,0,1-1.14,8.74c-.21,1.49-.36,3-.68,4.46-.27,1.24-.75,2.44-1.1,3.66-.13.46-.11,1-.21,1.43-.14.65-.31,1.3-.49,1.95-.12.46-.29.91-.43,1.36-.2.64-.39,1.29-.6,1.93-.11.33-.4.64-.39.95a11.24,11.24,0,0,1-2.4,7.21,1,1,0,0,0-.25.54c.4,4-2.39,7.32-2.59,11.28-.11,2.27-1.13,4.48-1.71,6.73a11,11,0,0,0-.2,1.64C233,78.68,232.24,79.77,230.77,81Z"/><path class="cls-3" d="M239.08,117.87c0-4.93-.06-9.87-.14-14.8a68.88,68.88,0,0,0-.36-7.17,10.53,10.53,0,0,0-1.33-3.61,1.5,1.5,0,0,0-2.35-.46c-2.91,2.11-5.75,4.31-8.68,6.39-1.67,1.19-3.49,2.15-5.18,3.31-1.26.87-2.41,1.88-3.6,2.85-1.35,1.1-2.55,2.51-4.07,3.27-3.16,1.57-5.13,4.22-7.15,6.89a10.3,10.3,0,0,1-1.6,1.78,4,4,0,0,0-1.74,3.19c-.11,1.77-1.17,3.47-1.77,5.22-.27.8-.4,1.63-.61,2.45S200,129,199.78,130a7.66,7.66,0,0,0,0,1.28,15.86,15.86,0,0,1-.19,3.1c-.08.36-1,.74-1.47.71s-.91-.57-1.27-1c-1.61-1.83-3.15-3.73-4.8-5.52a3.23,3.23,0,0,1-.92-3,12.58,12.58,0,0,0-.37-3.45c-.07-.48-.45-1-.32-1.42,1-3.07.32-6.06-.26-9.07a8.39,8.39,0,0,1,0-1.79c.06-1.5.07-3,.2-4.5.09-1.08.39-2.13.51-3.21.1-.91,0-1.84.13-2.74.2-1.56.49-3.11.74-4.67.11-.72.23-1.44.32-2.16.23-1.78.35-3.59.74-5.34a2,2,0,0,1,1.49-1.19,46.13,46.13,0,0,1,5.39.86,8.38,8.38,0,0,1,1.52.62,5.43,5.43,0,0,1,1,.42c1.79,1.21,2.24,5.81.66,7.27a3.1,3.1,0,0,0-1,2.95,6.59,6.59,0,0,1-.46,2.21c0,.19-.29.33-.31.51-.06.95-.49,2.22,0,2.77.8,1,1.74-.1,2.41-.67,3.23-2.77,6.87-4.94,10.33-7.36,3.25-2.29,7.1-3.2,10.3-5.46,1-.7,2.34-.86,3.46-1.41A3.44,3.44,0,0,0,229.81,86c.1-.9.77-1.4,1.63-1,2.3,1.13,4.44.08,6.58-.44,1.86-.45,5.15.27,6.28,1.83a3.62,3.62,0,0,1,.63,2.08,22,22,0,0,0,1,8,6.86,6.86,0,0,1-.11,2.6c0,.34-.19.68-.19,1,0,3.38.08,6.76,0,10.13a11.26,11.26,0,0,1-1,2.93c-.69,2-1.32,4.06-2,6.06a1.93,1.93,0,0,0,1,2.42,4,4,0,0,0,1.81.7c3.18.32,6.36.55,9.54.82,1.3.11,2.6.16,3.88.35a1.56,1.56,0,0,1,1.13.77c.09.31-.31.95-.66,1.16A8.68,8.68,0,0,1,256.1,127c-2.42.3-4.09,2.06-6.21,2.8a44.72,44.72,0,0,1-7.46,1.55,39.65,39.65,0,0,0-10.6,3.16c-2.81,1.32-5.74,1.09-8.64.43a1.65,1.65,0,0,1-1.29-2.3,2,2,0,0,0-.6-1.66c-1.56-1.4-1.51-3.32-1.32-5,.09-.76,1.55-1.78,2.53-2,3.33-.63,6.72-1,10.09-1.37a28.79,28.79,0,0,0,3.28-.29C238.87,121.61,239.34,120.94,239.08,117.87Z"/><path class="cls-3" d="M174.95,58.29a11.46,11.46,0,0,1,0-3.36c.17-2.63.56-5.27.55-7.9a44.15,44.15,0,0,0-.79-5.82c-.32-2.33.64-4.84-1-7a1,1,0,0,1-.07-.58,7.59,7.59,0,0,0-1.64-5.39,2.93,2.93,0,0,1-.52-1.36,2.63,2.63,0,0,0-1.82-2.1,19.69,19.69,0,0,1-2.53-1.64,6.39,6.39,0,0,0-1.22-.79c-1.71-.63-3.42-1.26-5.16-1.78-1.27-.37-2.59-.56-3.87-.83-3,.75-6.3.13-9,2.22-1.85,1.45-3.78,2.81-5.74,4.12-2.44,1.62-4.9,3.2-7.38,4.76l-1.28.65a6.86,6.86,0,0,0-1.9,1.37c-3.46,3.86-8,6.75-12.49,9.65-2.48,1.59-2.61,2.52-.61,4.46a4.2,4.2,0,0,1,1.51,2.78c-.14,2.11,1.07,3.23,3.16,3.77,4.48,1.16,9,2.33,13.55,3.21a6.54,6.54,0,0,0,4-1c3.41-2.17,10.94-3.14,14.74-5.15.36.11.59.25.63.46a27.7,27.7,0,0,1,.64,5.38c.08,3.78-.11,7.57,0,11.35a34.6,34.6,0,0,0,.5,4.09c0,1.49,0,3,0,4.49,0,1.12,0,2.24.07,3.36,0,1.61-.5,3.42.2,4.77a7.65,7.65,0,0,1,.48,6,7.14,7.14,0,0,0-.05,2.74c.11.9.54,1.77.62,2.67.15,1.74.17,3.5.22,5.26.07,2.54.28,7.61.33,7.61a6.85,6.85,0,0,0,.21,1.61,6.82,6.82,0,0,0,.89,1.34c.28-.48.82-1,.8-1.46a3.33,3.33,0,0,1,1.44-2.86,4.23,4.23,0,0,0,1.3-1.85c.6-1.84,1-3.72,1.61-5.57.29-.05.55-.13.65-.3a20.2,20.2,0,0,0,2.16-4.15,18.83,18.83,0,0,0,2-3.08,22.43,22.43,0,0,0,1.78-5.79c.45-2.41.57-4.87.84-7.3a.47.47,0,0,1,.14-.26c1.86-1.88,1.68-4.21,1.76-6.42.09-2.62,0-5.25-.19-7.88,0-.37-.06-.73-.11-1.1A10.8,10.8,0,0,0,174.95,58.29Z"/><path class="cls-3" d="M300.8,25.81a13.22,13.22,0,0,0-.94-2.9,4.28,4.28,0,0,0-.84-1.18c-.37-.4-.9-.67-1.19-1.11A5.76,5.76,0,0,0,294,18.25c-2.41-.55-4.8-1.23-7.21-1.75a5.52,5.52,0,0,0-2.75-.1,22.47,22.47,0,0,0-4.88,2.2c-3.72,2.32-7.32,4.83-11,7.24-2.21,1.45-4.46,2.86-6.69,4.28-2.58,1.64-3.35,1.51-5.4-.7a1.46,1.46,0,0,0-1.16-.39,1.09,1.09,0,0,0-.58.9,6.41,6.41,0,0,0,.72,2.23c.76,1.25,1.77,2.34,2.5,3.59,1.88,3.23,4.8,3.63,8,3.16s6.64-1.13,10-1.56a2.89,2.89,0,0,1,2.37.66,3.14,3.14,0,0,1-.31,2.51,55.84,55.84,0,0,1-3.14,5.11c-2.18,3.26-4.44,6.47-6.64,9.72-1.17,1.72-2.1,3.63-3.34,5.29,0,0-5.36,8.32-6.84,11.55l-.26.44c-.93,1.61-2,3.17-2.78,4.84a1.52,1.52,0,0,0-.13.4c-.72,1.08-1.49,2.16-2.37,3.24a14,14,0,0,0-1.21,2.47c2.37-.49,3.88-1.21,4.95-2.76a13.64,13.64,0,0,1,1.21-1.69l.24-.25A10.69,10.69,0,0,0,259,77.54a5.29,5.29,0,0,0,.81-1.1A19.49,19.49,0,0,0,263,72.72c.19-.31.4-.61.62-.9s.71-.76,1-1.16c.09-.11.17-.24.26-.36,2.26-2.33,5.07-4.1,6.85-6.83q2.81-2.19,5.66-4.31a2.55,2.55,0,0,1,2.2-.24c.44.2.63,1.23.73,1.91a17.5,17.5,0,0,1-.15,2c.07,3.41.44,6.83.18,10.21-.27,3.62-.61,7.17,0,10.79.33,1.91.31,3.89.46,5.84a1.6,1.6,0,0,0,.25.86,2.91,2.91,0,0,1,.26,3.14c-.67,1.92.24,3.57,1,5.21.15.34.93.55,1.41.54,1.22,0,2.44-.2,3.67-.31a3.09,3.09,0,0,0,3.32-3.75,1.68,1.68,0,0,1,.38-1.33c1.08-.89,1.54-1.81.74-3.14a1.54,1.54,0,0,1,0-1,37.19,37.19,0,0,0,1.47-5.19,55.29,55.29,0,0,0,.39-8.06c-.06-2.74-.45-5.46-.68-8.2-.19-2.14-.36-4.28-.55-6.41a1.52,1.52,0,0,0-.1-.29l-2.22-7.91a16.08,16.08,0,0,0-.52-1.89,3.43,3.43,0,0,1,.3-3.6c1.36-1.76,2.14-4,4.26-5.15a2.61,2.61,0,0,0,1-1.47c.48-1.55.83-3.14,1.27-4.71A10,10,0,0,1,297,36c.19-.45.3-.94.49-1.39.33-.74.72-1.45,1-2.19s.72-1.65,1-2.49.52-1.5.76-2.26A4.79,4.79,0,0,0,300.8,25.81Z"/><path class="cls-3" d="M358.52,37.36c.25-3.07,1.38-6.23-.52-9.21a.56.56,0,0,1,0-.35,7.27,7.27,0,0,0-1.22-5c-.06-.32-.13-.64-.21-1a1.75,1.75,0,0,0-1.08-1,42.11,42.11,0,0,0-6.1-7.13,32.27,32.27,0,0,0-6.87-4.34A6.37,6.37,0,0,0,339,8.86c-.59.07-1,1.17-1.58,1.77a6.08,6.08,0,0,1-.87.64c-2.07,1.56-2.06,2.78.15,4.07a3.42,3.42,0,0,1,1.93,3.52,34.3,34.3,0,0,0,.32,4.44c0,.08,0,.17,0,.25a2.31,2.31,0,0,0-.58,1.82c0,.55.09,1.11.14,1.67-.11.62-.21,1.24-.27,1.86A12.14,12.14,0,0,1,336.84,34l-.59.21c-1.89.66-3.84,1.17-5.67,2q-6.11,2.7-12.1,5.66c-1.6.79-3,2-4.56,2.86-2.32,1.34-4.59,3.13-7.4.83a2.14,2.14,0,0,0-2,.56c-1.31,2.23-.86,4.28,1.09,6.12.25.24.51.49.77.72a3.74,3.74,0,0,1,1.18,2.79,3.84,3.84,0,0,0,1.27,2.47c1.07.86,1.87,1.58,1.44,3.1-.27.95.36,1.42,1.27,1.37a4.65,4.65,0,0,0,1.43-.42,25.82,25.82,0,0,1,4.36-1.81c2.24-.47,4.57-.45,6.83-.83a10.93,10.93,0,0,0,3.5-1.28c4.17-2.36,8.28-4.84,12.43-7.24a4.63,4.63,0,0,1,1.7-.56c2-.26,3.1,1.07,2.66,3.07a10.41,10.41,0,0,0-.09,2.78c.05,1,.29,2,.36,3,.18,2.8.28,5.6.48,8.4a23.39,23.39,0,0,0,.6,4.43c.65,2.4.45,3.13-1.48,4.78a13.06,13.06,0,0,0-1.82,2.45,4,4,0,0,1-.57.86c-2.45,1.95-3.9,4.59-5.44,7.24-1.17,2-2.92,3.67-4.28,5.58-2.34,3.29-4.56,6.65-6.87,10-1.92,2.75-3.9,5.45-4.66,8.82a17,17,0,0,1-1.27,3.52,17.34,17.34,0,0,0-2.07,8.46l-.36,0c.25,1.64.43,3.29.78,4.91.21,1,.85,1.91,1,2.9a3,3,0,0,0,2,2.68c1.41.57,2.67,1.47,4,2.12.53.25,1.57.48,1.75.25,1.08-1.46,2.81-1.12,4.16-1.75a27.09,27.09,0,0,0,6.26-3.64,96.34,96.34,0,0,0,7.21-7.34,5,5,0,0,0,.89-1.54c.7-1.68,1.07-3.58,2.09-5,1.34-1.92,1.19-4,1.05-6-.29-4.21-2-7.83-5.78-10.12-1.5-.9-3-1.81-4.53-2.66a1,1,0,0,0-.94,0,1.12,1.12,0,0,0-.1.95c.23.71.56,1.39.85,2.08,1.28,3,2.65,6,3.77,9.14a3.25,3.25,0,0,1-.45,2.72,23.33,23.33,0,0,1-4.31,3.9c-3,2.11-6.23,4-9.34,6-1.15.75-2.4,1.44-3.58.44s-.16-2.3.13-3.46c.36-1.43.68-2.88,1.08-4.31a21.78,21.78,0,0,1,.81-2.17,30.48,30.48,0,0,0,1.5-3.84c.44-1.77.2-3.69,1.43-5.28a43.64,43.64,0,0,0,2.47-3.71c1.4-2.27,2.42-4.91,4.22-6.79,2.68-2.78,3.58-6.44,5.42-9.6,2.14-3.66,4.49-6,8.92-5.67a5.68,5.68,0,0,0,2.08-.25c.42-.13,1.1-.73,1-.86-.7-1.7-.12-3.24.4-4.81.07-.21-.12-.49-.11-.74,0-.89.1-1.78.22-2.66a16.82,16.82,0,0,0,.48-2.64c-.06-2.51,1.19-4.92.55-7.47a.81.81,0,0,1,.08-.44c.64-1.6,1.3-3.19,1.94-4.8a3,3,0,0,0,.26-1,38.16,38.16,0,0,1,.21-5.77c.45-2.35-.1-4.93,1.48-7.08a3.14,3.14,0,0,0,.2-1.7C358.58,38.37,358.55,37.86,358.52,37.36Z"/><path class="cls-2" d="M241.76,152.25a3,3,0,0,1-1.07,2.52,4,4,0,0,1-2.49.83,3.8,3.8,0,0,1-2.43-.83,3.11,3.11,0,0,1-1.08-2.52l0-1h1.22l0,.9a2.09,2.09,0,0,0,.79,1.83,2.71,2.71,0,0,0,1.49.5,2.93,2.93,0,0,0,1.57-.5,2,2,0,0,0,.79-1.83l0-9.52h1.22Z"/><path class="cls-2" d="M245.63,155.24V142.62h8.8v1.06h-7.58v4.48h7.33v1.06h-7.33v4.93h7.79v1.08Z"/><path class="cls-2" d="M263.84,152.25a3,3,0,0,1-1.07,2.52,4,4,0,0,1-2.49.83,3.8,3.8,0,0,1-2.43-.83,3.11,3.11,0,0,1-1.08-2.52l0-1H258l0,.9a2.09,2.09,0,0,0,.79,1.83,2.71,2.71,0,0,0,1.49.5,2.93,2.93,0,0,0,1.57-.5,2,2,0,0,0,.79-1.83l0-9.52h1.22Z"/><path class="cls-2" d="M277.09,151.36a4.08,4.08,0,0,1-1.26,3,5.68,5.68,0,0,1-7.14,0,4.13,4.13,0,0,1-1.23-3l0-8.73h1.21v8.51a3.77,3.77,0,0,0,6.29,2.34,3.39,3.39,0,0,0,.89-2.34l0-8.51h1.24Z"/><path class="cls-2" d="M297.47,144.41a7.21,7.21,0,0,1,0,9.06,5.36,5.36,0,0,1-4.28,1.81H289V142.61h4.19A5.38,5.38,0,0,1,297.47,144.41Zm-1,8.22a5.91,5.91,0,0,0,1.21-3.7,5.8,5.8,0,0,0-1.21-3.72,4.3,4.3,0,0,0-3.58-1.52h-2.72V154.2h2.72A4.23,4.23,0,0,0,296.51,152.62Z"/><path class="cls-2" d="M312,144.15a7.13,7.13,0,0,1,1.57,4.78,7.22,7.22,0,0,1-1.57,4.82,5.66,5.66,0,0,1-8.38,0,7.25,7.25,0,0,1-1.56-4.82,7.15,7.15,0,0,1,1.56-4.78,5.68,5.68,0,0,1,8.38,0Zm-1,8.77a6.33,6.33,0,0,0,1.21-4,6.23,6.23,0,0,0-1.21-4,4.14,4.14,0,0,0-6.45,0,6.26,6.26,0,0,0-1.21,4,6.36,6.36,0,0,0,1.21,4,4.11,4.11,0,0,0,6.45,0Z"/><path class="cls-2" d="M325.67,150.18a2.69,2.69,0,0,1,.49,2,3.92,3.92,0,0,1-1.39,2.46,5,5,0,0,1-3.46,1.07,4.73,4.73,0,0,1-3.74-1.41,4.47,4.47,0,0,1-1.21-3.12h1.22a3.09,3.09,0,0,0,1.09,2.57,4.64,4.64,0,0,0,5.06.22,2.53,2.53,0,0,0,1.14-1.75,1.65,1.65,0,0,0-.33-1.41,3.65,3.65,0,0,0-1.3-.95,7.48,7.48,0,0,0-1.9-.5,8.8,8.8,0,0,1-2-.48,4.81,4.81,0,0,1-2-1.2,2.66,2.66,0,0,1-.64-2,3.75,3.75,0,0,1,1.15-2.36,4.38,4.38,0,0,1,3.31-1.13q2.63,0,3.59,1.51a4.7,4.7,0,0,1,.93,2.5h-1.24a2.67,2.67,0,0,0-.88-2,3.31,3.31,0,0,0-2.39-.86A3.47,3.47,0,0,0,319,144a2.21,2.21,0,0,0-.88,1.68,1.65,1.65,0,0,0,.58,1.48,4.72,4.72,0,0,0,1.29.7,10.79,10.79,0,0,0,1.79.41,9.34,9.34,0,0,1,2.15.6A3.86,3.86,0,0,1,325.67,150.18Z"/><path class="cls-2" d="M329.45,155.24V142.62h8.8v1.06h-7.58v4.48H338v1.06h-7.33v4.93h7.79v1.08Z"/><path class="cls-2" d="M351.19,155.24v-1.82l-.11,0a4.68,4.68,0,0,1-1.66,1.58,4.8,4.8,0,0,1-2.47.64,5.14,5.14,0,0,1-4.19-1.86,7.34,7.34,0,0,1-1.53-4.82,7.21,7.21,0,0,1,1.54-4.78,5.16,5.16,0,0,1,4.18-1.85,4.86,4.86,0,0,1,3.78,1.42,6.22,6.22,0,0,1,1.57,2.54H351a5,5,0,0,0-1.29-1.9,3.73,3.73,0,0,0-2.73-.95,3.84,3.84,0,0,0-3.23,1.55,7.31,7.31,0,0,0,0,8,3.81,3.81,0,0,0,3.21,1.56,4,4,0,0,0,3.12-1.28,4.06,4.06,0,0,0,1.14-2.75V150h-4.07v-1.06h5.31v6.35Z"/><path class="cls-2" d="M356.23,155.24V142.62h1.17v12.62Z"/></g></g></svg>